<?xml version="1.0" standalone="no"?>
<!DOCTYPE svg PUBLIC "-//W3C//DTD SVG 20010904//EN"
 "http://www.w3.org/TR/2001/REC-SVG-20010904/DTD/svg10.dtd">
<svg version="1.0" xmlns="http://www.w3.org/2000/svg"
 width="225.000000pt" height="225.000000pt" viewBox="0 0 225.000000 225.000000"
 preserveAspectRatio="xMidYMid meet">
<metadata>
Created by potrace 1.10, written by Peter Selinger 2001-2011
</metadata>
<g transform="translate(0.000000,225.000000) scale(0.100000,-0.100000)"
fill="#000000" stroke="none">
<path d="M1050 1955 c-60 -9 -104 -26 -215 -83 -118 -60 -156 -85 -242 -162
-124 -111 -152 -155 -215 -335 -12 -33 -24 -62 -28 -65 -15 -11 -19 -105 -10
-203 10 -99 38 -221 65 -282 7 -16 19 -46 26 -65 7 -19 26 -56 41 -81 15 -25
28 -50 28 -55 1 -17 75 -91 143 -144 37 -28 67 -55 67 -58 0 -14 170 -94 231
-109 113 -27 155 -30 299 -24 153 7 201 13 217 29 9 9 23 16 32 17 9 0 68 29
131 65 93 52 133 82 206 156 84 84 116 135 94 149 -5 3 -48 -16 -96 -41 -170
-89 -208 -98 -384 -99 -159 0 -237 12 -273 43 -10 9 -26 16 -37 17 -32 3 -128
67 -184 124 -65 67 -126 156 -126 183 0 11 -7 32 -15 46 -25 43 -52 203 -51
294 2 82 7 105 50 223 23 62 165 268 196 285 10 5 42 30 71 56 30 25 79 60
109 77 45 27 51 33 33 35 -13 2 -23 8 -23 13 0 11 -43 10 -140 -6z m80 -36
c-14 -11 -46 -38 -72 -59 -26 -22 -49 -40 -52 -40 -3 0 3 13 12 30 14 24 15
33 4 50 -10 17 -10 20 5 20 28 1 98 12 102 16 2 2 9 4 15 4 6 -1 0 -10 -14
-21z m-120 -39 c0 -5 -32 -42 -71 -81 -59 -59 -80 -90 -120 -175 -56 -118 -96
-233 -105 -304 -4 -28 -11 -50 -17 -50 -15 0 -1 -143 23 -229 27 -96 55 -149
129 -244 33 -43 63 -86 66 -95 3 -9 26 -32 50 -51 25 -18 45 -40 45 -47 0 -8
3 -13 8 -12 4 2 39 -10 77 -26 182 -75 503 -65 667 21 81 42 65 19 -35 -50
-51 -36 -100 -73 -108 -83 -24 -29 -127 -72 -202 -84 -40 -6 -80 -16 -89 -21
-44 -23 -265 -2 -386 36 -103 32 -187 85 -274 170 -151 148 -227 284 -259 458
-18 97 -19 124 -10 197 19 149 50 249 81 257 19 5 25 19 22 56 -2 22 154 179
238 238 74 53 133 84 205 110 60 21 65 22 65 9z m-102 -165 c-11 -20 -23 -34
-25 -31 -5 5 35 66 42 66 3 0 -5 -16 -17 -35z m-437 -218 c-16 -16 -26 0 -10
19 9 11 15 12 17 4 2 -6 -1 -17 -7 -23z m-94 -229 c-3 -7 -5 -2 -5 12 0 14 2
19 5 13 2 -7 2 -19 0 -25z m-10 -65 c-3 -10 -5 -2 -5 17 0 19 2 27 5 18 2 -10
2 -26 0 -35z m97 -429 c3 -8 2 -12 -4 -9 -6 3 -10 10 -10 16 0 14 7 11 14 -7z
m167 -225 c41 -41 99 -92 129 -112 30 -20 50 -37 44 -37 -22 0 -215 152 -247
193 -29 39 -87 141 -87 153 0 5 20 -20 44 -56 24 -36 77 -99 117 -141z m1233
86 c-18 -28 -34 -33 -34 -10 0 8 7 15 16 15 8 0 12 5 9 10 -3 6 1 10 10 10 14
0 14 -2 -1 -25z m-984 -271 c0 -2 -9 0 -20 6 -11 6 -20 13 -20 16 0 2 9 0 20
-6 11 -6 20 -13 20 -16z m247 -50 c-3 -3 -12 -4 -19 -1 -8 3 -5 6 6 6 11 1 17
-2 13 -5z"/>
</g>
</svg>
