<?xml version="1.0" standalone="no"?>
<!DOCTYPE svg PUBLIC "-//W3C//DTD SVG 20010904//EN"
 "http://www.w3.org/TR/2001/REC-SVG-20010904/DTD/svg10.dtd">
<svg version="1.0" xmlns="http://www.w3.org/2000/svg"
 width="225.000000pt" height="225.000000pt" viewBox="0 0 225.000000 225.000000"
 preserveAspectRatio="xMidYMid meet">
<metadata>
Created by potrace 1.10, written by Peter Selinger 2001-2011
</metadata>
<g transform="translate(0.000000,225.000000) scale(0.050000,-0.050000)"
fill="#000000" stroke="none">
<path d="M2096 3646 c-154 -313 -142 -310 -410 -117 -269 195 -279 194 -266
-40 5 -98 9 -233 10 -299 l0 -120 -120 0 c-66 0 -203 8 -305 17 -237 21 -238
10 -34 -276 197 -274 200 -264 -111 -408 -340 -158 -340 -157 26 -317 267
-117 272 -129 141 -318 -52 -76 -100 -142 -106 -148 -43 -39 -102 -148 -97
-176 8 -39 64 -41 390 -15 l204 17 13 -53 c7 -29 3 -154 -9 -279 -29 -297 -29
-294 18 -294 37 0 142 68 372 239 107 80 155 79 194 -4 17 -36 71 -153 121
-260 59 -127 102 -195 123 -195 28 0 134 199 239 452 42 100 89 88 326 -83
265 -192 278 -191 266 32 -6 93 -10 228 -10 299 l-1 130 130 -1 c72 0 206 -4
299 -10 223 -12 224 1 31 269 -199 277 -200 274 80 397 369 161 368 156 30
322 -282 139 -293 154 -201 279 303 411 303 408 50 394 -98 -5 -233 -9 -299
-10 l-120 0 0 120 c0 66 7 203 16 305 17 205 -6 234 -116 150 -25 -19 -65 -48
-90 -65 -24 -16 -98 -69 -164 -117 -170 -123 -182 -116 -317 182 -145 320
-146 320 -303 1z m141 -126 c13 -38 14 -60 1 -60 -22 0 -58 83 -44 105 14 25
21 18 43 -45z m137 -95 c19 -30 44 -61 55 -69 11 -8 13 -20 6 -28 -8 -8 -39
12 -69 44 l-53 58 -17 -65 c-18 -67 -56 -90 -56 -34 0 17 -10 25 -21 18 -48
-29 -128 10 -92 46 25 26 38 28 57 9 30 -30 56 -31 56 -3 0 81 88 97 134 24z
m-705 -44 c6 -10 -8 -32 -33 -50 -30 -20 -35 -31 -15 -31 25 -1 25 -3 -1 -20
-23 -15 -16 -19 31 -20 33 0 81 14 106 32 62 44 85 14 26 -34 -26 -21 -40 -38
-31 -38 9 0 -4 -15 -30 -33 -27 -19 -52 -24 -59 -13 -7 10 -29 25 -48 32 -42
15 -50 165 -10 181 39 16 52 14 64 -6z m1207 -89 c-3 -27 -14 -44 -28 -38 -13
5 -29 0 -36 -10 -6 -11 6 -24 28 -30 46 -12 55 -74 11 -74 -19 0 -25 12 -17
32 10 27 3 30 -36 18 -26 -8 -42 -8 -34 0 8 8 -5 30 -28 49 -29 24 -35 39 -19
49 13 8 23 5 23 -7 0 -33 38 -25 85 19 54 50 55 50 51 -8z m-256 -93 c518
-218 767 -760 586 -1276 -98 -278 -336 -545 -532 -594 -33 -8 -48 -23 -41 -41
13 -31 -24 -39 -43 -9 -7 12 -31 12 -66 -2 -193 -75 -727 -10 -802 98 -7 9
-43 38 -82 65 -75 51 -200 170 -200 190 0 7 -21 41 -46 76 -26 35 -63 102 -83
149 -35 79 -71 112 -71 64 0 -12 -10 -15 -23 -7 -16 9 -14 18 6 29 22 13 27
81 26 327 -1 242 5 312 24 312 15 0 32 25 39 55 48 196 387 545 531 545 19 0
47 13 63 29 67 67 546 60 714 -10z m-1453 -294 c5 -9 -2 -32 -17 -51 -29 -41
-57 -15 -38 34 13 34 39 42 55 17z m1983 -5 c-7 -11 -3 -20 8 -20 11 0 25 9
32 20 22 36 230 17 230 -21 0 -9 -18 -15 -40 -14 -22 2 -40 11 -40 19 0 9 -20
16 -44 16 -34 0 -39 -5 -20 -24 37 -37 32 -88 -6 -56 -16 14 -30 37 -30 52 0
16 -9 28 -20 28 -11 0 -20 -4 -20 -8 0 -5 -6 -23 -12 -41 -9 -23 -4 -28 20
-19 21 8 32 1 32 -20 0 -18 10 -32 21 -32 12 0 7 -15 -11 -32 -17 -18 -34 -29
-36 -25 -100 182 -106 197 -73 197 12 0 16 -9 9 -20z m-1850 -9 c0 -57 -45
-117 -63 -85 -25 45 -8 94 32 94 17 0 31 -4 31 -9z m39 -96 c-1 -57 -59 -108
-59 -52 0 28 6 56 13 64 22 21 47 15 46 -12z m1979 -401 l-3 -104 -16 80 c-23
110 -23 155 1 140 11 -7 19 -59 18 -116z m-2158 6 c0 -22 -13 -40 -30 -40 -16
0 -30 -9 -30 -20 0 -11 14 -20 30 -20 17 0 30 -10 30 -21 0 -12 9 -16 20 -9
30 19 24 -9 -10 -43 -16 -16 -30 -47 -30 -68 0 -53 -20 -49 -101 20 l-69 59
77 1 c52 1 74 9 68 26 -5 14 -33 25 -62 24 -61 -1 -70 23 -16 40 21 7 54 30
73 52 45 49 50 49 50 -1z m2290 -120 c-9 -47 15 -52 55 -12 16 16 39 22 51 14
16 -9 9 -26 -20 -51 -31 -26 -52 -31 -74 -17 -40 25 -82 11 -82 -26 0 -15 -8
-28 -19 -28 -10 0 -22 -16 -27 -35 -5 -19 -10 1 -10 45 -1 81 32 199 35 125 0
-19 15 -35 32 -35 17 0 26 9 19 20 -16 26 7 64 30 50 10 -6 14 -29 10 -50z
m-2171 -465 c-7 -95 0 -128 22 -95 15 22 17 14 7 -30 -11 -49 -8 -55 13 -35
37 35 89 -8 57 -48 -31 -37 -98 -34 -98 4 0 17 -14 59 -32 93 -26 51 -28 69
-7 109 32 59 43 60 38 2z m2041 -91 c0 -14 13 -30 28 -36 75 -29 47 -63 -50
-60 -54 1 -98 -5 -98 -13 0 -8 -20 -14 -45 -13 -25 0 -34 6 -20 11 14 6 21 18
15 27 -29 47 71 156 121 133 27 -13 49 -35 49 -49z m-423 -484 c-15 -59 -40
-111 -55 -116 -16 -5 -22 0 -14 13 7 12 -4 33 -26 46 -36 23 -37 27 -6 52 19
16 21 21 6 13 -19 -10 -23 -6 -13 11 9 13 32 20 53 15 21 -6 38 -2 38 8 0 10
-22 18 -49 18 -27 0 -55 10 -62 22 -10 15 0 18 31 8 34 -11 41 -8 29 11 -11
18 -6 22 18 13 24 -9 33 -1 34 32 2 44 2 44 22 2 14 -29 12 -73 -6 -148z
m-1207 96 c34 -8 32 -12 -16 -25 -65 -18 -84 -6 -65 43 8 22 18 27 27 13 8
-12 32 -26 54 -31z m121 -67 c37 -30 37 -31 -16 -20 -32 7 -55 3 -55 -9 0 -11
-9 -20 -19 -20 -11 0 -15 14 -8 30 6 17 0 30 -13 30 -16 0 -20 -17 -12 -50 14
-56 -1 -62 -53 -22 -42 32 -47 81 -6 65 17 -6 35 -3 42 8 18 29 97 23 140 -12z
m557 -81 c40 -16 42 -48 2 -48 -16 0 -30 -10 -30 -22 0 -13 -15 -17 -34 -9
-19 7 -29 7 -21 0 7 -8 0 -27 -16 -43 -16 -16 -29 -50 -29 -77 0 -33 -9 -44
-28 -37 -29 11 -21 88 10 88 9 0 11 14 5 31 -9 23 -18 25 -40 6 -22 -18 -34
-18 -53 1 -19 19 -16 30 11 51 19 14 35 36 35 48 0 24 134 32 188 11z"/>
<path d="M1909 3159 c-46 -51 80 -58 142 -8 22 18 29 27 16 20 -13 -6 -46 -3
-73 8 -40 15 -57 11 -85 -20z"/>
<path d="M1780 3098 c-27 -11 -57 -33 -66 -49 -9 -16 -29 -29 -45 -29 -16 0
-29 -9 -29 -20 0 -11 -48 -67 -107 -125 -125 -122 -177 -252 -84 -209 28 13
51 35 51 48 0 12 16 27 35 32 33 9 33 9 0 12 -54 3 -13 102 42 102 13 0 23 9
23 20 0 11 19 20 42 20 36 0 39 5 18 30 -20 24 -16 33 26 49 28 10 60 35 72
55 11 20 21 25 21 11 1 -14 11 -25 22 -25 12 0 16 8 10 18 -6 10 3 23 19 29
30 12 43 54 15 52 -8 -1 -37 -10 -65 -21z"/>
<path d="M1345 2585 c-29 -10 -33 -82 -6 -124 14 -23 21 -18 31 23 17 68 6
112 -25 101z"/>
<path d="M1990 1980 c-72 -13 -74 -15 -19 -17 34 -2 70 -12 81 -23 13 -13 21
-6 23 20 1 22 1 39 -1 37 -2 -1 -40 -9 -84 -17z"/>
<path d="M2324 400 c2 -51 10 -60 54 -58 29 0 41 6 27 11 -14 6 -25 32 -25 59
0 28 -12 48 -29 48 -19 0 -28 -20 -27 -60z"/>
</g>
</svg>
